<svg width="18" height="17" viewBox="0 0 18 17" fill="none" xmlns="http://www.w3.org/2000/svg">
<path d="M8.65655 0.91664C8.94874 0.225052 9.94388 0.225053 10.2361 0.916641L11.9605 4.99852C12.0838 5.29008 12.3623 5.48928 12.682 5.51452L17.1581 5.86781C17.9165 5.92767 18.224 6.85942 17.6462 7.3467L14.2359 10.2227C13.9923 10.4282 13.8859 10.7505 13.9603 11.0576L15.0022 15.3578C15.1787 16.0864 14.3737 16.6623 13.7244 16.2719L9.89216 13.9674C9.61844 13.8028 9.27418 13.8028 9.00046 13.9674L5.16824 16.2719C4.51894 16.6623 3.71386 16.0864 3.89038 15.3578L4.93231 11.0576C5.00673 10.7505 4.90035 10.4282 4.65677 10.2227L1.24639 7.3467C0.668578 6.85942 0.976097 5.92767 1.73449 5.86781L6.21065 5.51452C6.53038 5.48928 6.80889 5.29008 6.93206 4.99852L8.65655 0.91664Z" fill="#FFE550"/>
</svg>
